<svg t="1726294559329" class="icon" viewBox="0 0 1024 1024" version="1.1" xmlns="http://www.w3.org/2000/svg" p-id="5281"
     width="16" height="16">
    <path d="M734.852526 319.611984a43.060508 43.060508 0 0 0-28.792316-8.701678 34.99866 34.99866 0 0 0-38.645686 39.029584v296.88077a40.565174 40.565174 0 0 0 8.893626 28.216469 36.918147 36.918147 0 0 0 29.816043 10.749132 34.99866 34.99866 0 0 0 39.669413-38.965601V349.172095a36.918147 36.918147 0 0 0-10.94108-29.560111z m279.1575 91.431599v-1.983471l-0.383897-0.511863a456.326218 456.326218 0 0 0-910.093119 54.065571v3.07118C72.501291 497.996377 6.40693 572.600467 6.40693 627.049936a93.095155 93.095155 0 0 0 97.765909 88.104487l0.959744-0.063983 38.325772 8.637695 8.125831 212.743224A88.104487 88.104487 0 0 0 239.368758 1024H404.508687a39.221533 39.221533 0 0 0 0-78.443066H239.368758a9.789387 9.789387 0 0 1-9.597438-9.917353l-10.301251-275.254541-100.901072-22.585973-3.135163-0.959743h-5.374566a63.790976 63.790976 0 0 1-19.514792-3.902959c-6.142361-2.495334-6.142361-3.455078-6.142361-5.374566A334.118832 334.118832 0 0 1 169.819319 510.856945a39.349499 39.349499 0 0 0 10.301251-37.62196 37.302045 37.302045 0 0 0 1.215676-9.917353A378.139084 378.139084 0 0 1 903.575498 303.104389c18.043185 43.636355 29.304179 89.832026 33.46307 136.923459a456.838081 456.838081 0 0 1-137.17939 361.567506l-1.279659 1.407625-0.44788 1.855504a48.371091 48.371091 0 0 0 9.533455 41.268987 38.06984 38.06984 0 0 0 28.088504 9.917353c7.613968-0.127966 15.163953-1.151693 22.458007-3.135163l1.471607-0.383898 1.151693-0.959744a427.213987 427.213987 0 0 0 87.720589-112.034101 546.862056 546.862056 0 0 0 65.454532-328.488334zM537.273255 336.055595a34.550779 34.550779 0 0 0-13.052516-17.915219 49.202869 49.202869 0 0 0-52.785913 0 34.35883 34.35883 0 0 0-12.988534 17.595305L355.561749 638.182965a32.631292 32.631292 0 0 0 4.094908 36.406284 40.565174 40.565174 0 0 0 29.304179 10.749131 39.861362 39.861362 0 0 0 28.152487-9.085575 57.200735 57.200735 0 0 0 14.268192-22.010126l20.282587-53.105827h92.135412l22.138091 56.113024a54.833366 54.833366 0 0 0 12.988534 19.706741 35.958404 35.958404 0 0 0 25.977067 8.701678h1.791522a42.22873 42.22873 0 0 0 29.30418-10.749131 32.567309 32.567309 0 0 0 5.118634-35.126626L537.273255 336.055595zM450.000546 532.867071l46.323637-93.607019 46.003723 93.607019H450.000546z"
          p-id="5282" fill="#515151"></path>
</svg>