<svg t="1726733272888" class="icon" viewBox="0 0 1024 1024" version="1.1" xmlns="http://www.w3.org/2000/svg"
     p-id="26574" width="14" height="14">
    <path d="M754.2 151.5h-89.5v42.7h89.5c59.5 0 108 48.4 108 108v67.6h42.7v-67.6c0-83.1-67.6-150.7-150.7-150.7zM862.2 737.3c0 59.5-48.4 108-108 108h-89.5V888h89.5c83.1 0 150.7-67.6 150.7-150.7v-67.6h-42.7v67.6zM166.3 737.8v-67.6h-42.7v67.6c0 83.1 67.6 150.7 150.7 150.7h89.5v-42.7h-89.5c-59.5 0-108-48.4-108-108zM416.3 261.8h-42.8v126H247.6v42.7h125.9V556h42.8V430.5h125.4v-42.7H416.3z"
          p-id="26575" fill="#515151"></path>
    <path d="M773.6 789.4l30.2-30.2-190.1-190.6c32.7-44.8 52-99.9 52-159.5 0-149.7-121.6-271.3-271.3-271.3-149.3 0-271.3 121.6-271.3 271.3 0 149.3 121.5 271.3 271.3 271.3 74.5 0 142.3-30.3 191.4-79.3l187.8 188.3zM394.4 637.7c-126 0-228.6-102.5-228.6-228.6s102.5-228.6 228.6-228.6S623 283.1 623 409.2 520.5 637.7 394.4 637.7z"
          p-id="26576" fill="#515151"></path>
</svg>