<svg t="1728551708071" class="icon" viewBox="0 0 1024 1024" version="1.1" xmlns="http://www.w3.org/2000/svg" p-id="1479" width="16" height="16"><path d="M518.5 520c23.3-20.4 40.4-36.1 45.9-42.3 13.4-17.9 20.2-40.4 20.2-67 0-33.1-11-59.5-32.8-78.6-21.3-19.1-50.1-28.8-85.7-28.8-39.6 0-71.5 11.5-94.8 34.2-23.8 22.7-35.4 53.6-35.4 94.4v3.4h67v-3.4c0-21.8 4.2-38.5 12.6-49.9 9.2-13.6 24.5-20.2 46.8-20.2 17.3 0 30.7 4.6 39.8 13.7 9.2 9.7 13.9 22.8 13.9 38.9 0 12.5-4.5 24.4-13.4 35.3l-6 7.1c-35.1 31.4-55.6 53.7-62.6 68.1-7.4 14.2-10.9 31.6-10.9 53.3V589h67.5v-10.8c0-11.9 2.5-22.6 7.6-32.8 4.9-9.9 11.7-18.4 20.3-25.4zM456.6 608c-12.5 0-22.7 3.9-31.4 12-8.4 7.9-12.7 18.3-12.7 31s4.3 23.1 12.7 31c8.9 8.3 19.5 12.5 31.4 12.5 12.4 0 22.7-3.9 31.4-12s13.2-19 13.2-31.5c0-12.1-4.2-22.5-12.7-31-8.6-7.9-19.3-12-31.9-12z" fill="#e6e6e6" p-id="1480"></path><path d="M931.3 890.5L779.9 739.2c59.9-71.1 96-162.7 96-262.7 0-225.2-183.2-408.4-408.4-408.4-139.5 0-268 70.1-343.6 187.6-3 4.7-5.9 9.4-8.7 14.2-7.9 13.5-15.2 27.6-21.5 42-8.6 19.4 0.2 42.2 19.7 50.7 19.4 8.6 42.2-0.2 50.7-19.7 5.1-11.6 11-23.1 17.4-34 2.3-3.9 4.6-7.7 7.1-11.5C250.1 202 354.4 145 467.6 145 650.3 145 799 293.7 799 476.5c0 182.7-148.7 331.4-331.4 331.4-145.9 0-276.6-97.6-317.9-237.4-6-20.4-27.4-32-47.8-26s-32 27.4-26 47.8c50.9 172.3 211.9 292.6 391.7 292.6 97.5 0 187.2-34.4 257.5-91.7L876.9 945c7.5 7.5 17.4 11.3 27.2 11.3 9.9 0 19.7-3.8 27.2-11.3 15-15.1 15-39.4 0-54.5z" fill="#e6e6e6" p-id="1481"></path></svg>