<svg t="1726810894368" class="icon" viewBox="0 0 1024 1024" version="1.1" xmlns="http://www.w3.org/2000/svg"
     p-id="35278" width="20" height="20">
    <path d="M925.6 337.4c-22.6-53.3-54.8-101.2-96-142.3-41.1-41.1-89-73.4-142.3-96C632.1 75.8 573.5 63.9 513 63.9S393.9 75.8 338.7 99.1c-53.3 22.6-101.2 54.8-142.3 96-41.1 41.1-73.4 89-96 142.3C77 392.6 65.2 451.3 65.2 511.7c0 60.4 11.8 119.1 35.2 174.3 22.6 53.3 54.8 101.2 96 142.3 41.1 41.1 89 73.4 142.3 96 55.2 23.4 113.9 35.2 174.3 35.2s119.1-11.8 174.3-35.2c53.3-22.6 101.2-54.8 142.3-96 41.1-41.1 73.4-89 96-142.3 23.4-55.2 35.2-113.9 35.2-174.3 0-60.4-11.8-119.1-35.2-174.3zM513 878.6c-202.3 0-366.9-164.6-366.9-366.9S310.7 144.8 513 144.8c202.3 0 366.9 164.6 366.9 366.9S715.4 878.6 513 878.6z"
          p-id="35279" fill="#e6e6e6"></path>
    <path d="M545 302.4c-4.1-4.7-9-8.2-14.4-10.6-0.1 0-0.2-0.1-0.3-0.1l-1.5-0.6c-0.2-0.1-0.4-0.2-0.6-0.2-0.4-0.2-0.8-0.3-1.2-0.4-0.3-0.1-0.6-0.2-0.8-0.3-0.3-0.1-0.7-0.2-1-0.3s-0.7-0.2-1-0.3-0.6-0.2-0.9-0.2c-0.4-0.1-0.8-0.2-1.1-0.3-0.3-0.1-0.6-0.1-0.8-0.2-0.4-0.1-0.8-0.2-1.2-0.2-0.3 0-0.5-0.1-0.8-0.1-0.4-0.1-0.8-0.1-1.2-0.2-0.3 0-0.6-0.1-0.8-0.1-0.4 0-0.8-0.1-1.2-0.1-0.3 0-0.6 0-0.9-0.1h-4.2c-0.3 0-0.6 0-0.9 0.1-0.4 0-0.8 0.1-1.2 0.1-0.3 0-0.6 0.1-0.8 0.1-0.4 0-0.8 0.1-1.2 0.2-0.3 0-0.5 0.1-0.8 0.1-0.4 0.1-0.8 0.1-1.2 0.2-0.3 0.1-0.6 0.1-0.8 0.2-0.4 0.1-0.8 0.2-1.1 0.3s-0.6 0.1-0.9 0.2c-0.3 0.1-0.7 0.2-1 0.3s-0.7 0.2-1 0.3-0.6 0.2-0.8 0.3c-0.4 0.1-0.8 0.3-1.2 0.4-0.2 0.1-0.4 0.2-0.6 0.2l-1.5 0.6c-0.1 0-0.2 0.1-0.3 0.1-5.3 2.4-10.3 5.9-14.4 10.6L358.1 441.8c-16 17.6-14.3 44.8 3.3 60.3 17.6 15.6 44.7 13.9 60.3-3.7l49.2-55.7v211.7c0 1.3 0.1 2.7 0.2 4-0.1 1.4-0.2 2.9-0.2 4.4v30.3c0 23.2 19 42.2 42.2 42.2 23.2 0 42.2-19 42.2-42.2v-30.3c0-1.6-0.1-3.1-0.3-4.7 0.1-1.2 0.2-2.4 0.2-3.7V442.8l49.2 55.6c15.6 17.6 42.7 19.3 60.3 3.7 17.6-15.6 19.3-42.7 3.7-60.3L545 302.4z"
          p-id="35280" fill="#e6e6e6"></path>
</svg>